<svg
        xmlns="http://www.w3.org/2000/svg"
        width="100%"
        height="100%"
        viewBox="0 0 24 24"
        focusable="false"
        style=""
      >
      <path fill="#7F7F7F" d="M21,12.9H3c-0.5,0-0.9-0.4-0.9-0.9s0.4-0.9,0.9-0.9h18c0.5,0,0.9,0.4,0.9,0.9S21.5,12.9,21,12.9z"></path>
      <path fill="##7F7F7F" d="M21,6.9H3C2.5,6.9,2.1,6.5,2.1,6S2.5,5.1,3,5.1h18c0.5,0,0.9,0.4,0.9,0.9S21.5,6.9,21,6.9z"></path>
      <path fill="##7F7F7F" d="M21,18.9H3c-0.5,0-0.9-0.4-0.9-0.9s0.4-0.9,0.9-0.9h18c0.5,0,0.9,0.4,0.9,0.9S21.5,18.9,21,18.9z"></path>
</svg>